<svg width="32" height="32" viewBox="0 0 32 32" fill="none" xmlns="http://www.w3.org/2000/svg">
  <defs>
    <linearGradient id="faviconBg" x1="0%" y1="0%" x2="100%" y2="100%">
      <stop offset="0%" style="stop-color:#059669;stop-opacity:1" />
      <stop offset="50%" style="stop-color:#0D9488;stop-opacity:1" />
      <stop offset="100%" style="stop-color:#0F766E;stop-opacity:1" />
    </linearGradient>
    <linearGradient id="faviconAccent" x1="0%" y1="0%" x2="100%" y2="100%">
      <stop offset="0%" style="stop-color:#FFF7ED;stop-opacity:1" />
      <stop offset="100%" style="stop-color:#FFFFFF;stop-opacity:1" />
    </linearGradient>
    <filter id="glow">
      <feGaussianBlur stdDeviation="1" result="coloredBlur"/>
      <feMerge>
        <feMergeNode in="coloredBlur"/>
        <feMergeNode in="SourceGraphic"/>
      </feMerge>
    </filter>
  </defs>

  <!-- Main background with rounded corners -->
  <rect width="32" height="32" rx="7" fill="url(#faviconBg)"/>

  <!-- Subtle inner shadow -->
  <rect x="1" y="1" width="30" height="30" rx="6" fill="none" stroke="rgba(255,255,255,0.1)" stroke-width="0.5"/>

  <!-- ScrapeMaster "S" icon -->
  <g filter="url(#glow)">
    <!-- Modern S shape with data flow concept -->
    <path d="M 12 8 C 15 8 17 10 17 12 C 17 14 15 15 13 15 L 11 15 C 10 15 9 16 9 17 C 9 18 10 19 11 19 L 20 19"
          stroke="url(#faviconAccent)" stroke-width="2.2" fill="none" stroke-linecap="round"/>

    <!-- Data points flowing -->
    <circle cx="14" cy="10" r="1" fill="url(#faviconAccent)" opacity="0.9"/>
    <circle cx="16" cy="22" r="1" fill="url(#faviconAccent)" opacity="0.7"/>
    <circle cx="18" cy="17" r="0.8" fill="url(#faviconAccent)" opacity="0.8"/>

    <!-- AI/Smart indicator -->
    <circle cx="23" cy="12" r="2.5" fill="none" stroke="url(#faviconAccent)" stroke-width="1.2" opacity="0.8"/>
    <circle cx="23" cy="12" r="0.8" fill="url(#faviconAccent)"/>

    <!-- Connection line -->
    <path d="M 19 15 L 20.5 13" stroke="url(#faviconAccent)" stroke-width="1" opacity="0.6"/>
  </g>

  <!-- Bottom brand accent -->
  <rect x="8" y="26" width="16" height="2" rx="1" fill="url(#faviconAccent)" opacity="0.4"/>
</svg>
