<svg width="40" height="40" viewBox="0 0 40 40" fill="none" xmlns="http://www.w3.org/2000/svg">
  <defs>
    <linearGradient id="logoBg" x1="0%" y1="0%" x2="100%" y2="100%">
      <stop offset="0%" style="stop-color:#059669;stop-opacity:1" />
      <stop offset="30%" style="stop-color:#0D9488;stop-opacity:1" />
      <stop offset="100%" style="stop-color:#0F766E;stop-opacity:1" />
    </linearGradient>
    <linearGradient id="logoIcon" x1="0%" y1="0%" x2="100%" y2="100%">
      <stop offset="0%" style="stop-color:#FFFFFF;stop-opacity:1" />
      <stop offset="100%" style="stop-color:#F0FDF4;stop-opacity:0.95" />
    </linearGradient>
    <linearGradient id="logoAccent" x1="0%" y1="0%" x2="100%" y2="100%">
      <stop offset="0%" style="stop-color:#10B981;stop-opacity:1" />
      <stop offset="100%" style="stop-color:#059669;stop-opacity:1" />
    </linearGradient>
    <filter id="logoGlow" x="-20%" y="-20%" width="140%" height="140%">
      <feGaussianBlur stdDeviation="1.5" result="coloredBlur"/>
      <feMerge>
        <feMergeNode in="coloredBlur"/>
        <feMergeNode in="SourceGraphic"/>
      </feMerge>
    </filter>
    <filter id="innerShadow">
      <feOffset dx="0" dy="-1"/>
      <feGaussianBlur stdDeviation="1" result="offset-blur"/>
      <feFlood flood-color="#065F46" flood-opacity="0.3"/>
      <feComposite in2="offset-blur" operator="in"/>
    </filter>
  </defs>

  <!-- Main background with enhanced gradient -->
  <rect width="40" height="40" rx="10" fill="url(#logoBg)" filter="url(#innerShadow)"/>

  <!-- Subtle border glow -->
  <rect x="0.5" y="0.5" width="39" height="39" rx="9.5" fill="none" stroke="rgba(255,255,255,0.2)" stroke-width="1"/>

  <!-- ScrapeMaster brand icon -->
  <g filter="url(#logoGlow)">
    <!-- Modern "S" with data flow visualization -->
    <path d="M 14 10 C 18 10 20 12 20 15 C 20 17 18 18 16 18 L 14 18 C 12 18 11 19 11 20.5 C 11 22 12 23 14 23 L 26 23"
          stroke="url(#logoIcon)" stroke-width="2.5" fill="none" stroke-linecap="round"/>

    <!-- Data extraction visualization -->
    <g opacity="0.9">
      <!-- Data nodes -->
      <circle cx="17" cy="12" r="1.2" fill="url(#logoIcon)"/>
      <circle cx="19" cy="28" r="1.2" fill="url(#logoIcon)" opacity="0.8"/>
      <circle cx="22" cy="20" r="1" fill="url(#logoIcon)" opacity="0.9"/>
      <circle cx="24" cy="25" r="0.8" fill="url(#logoIcon)" opacity="0.7"/>

      <!-- Data flow lines -->
      <path d="M 20 16 Q 22 14 24 16" stroke="url(#logoIcon)" stroke-width="1" opacity="0.6" fill="none"/>
      <path d="M 13 21 Q 15 23 17 25" stroke="url(#logoIcon)" stroke-width="1" opacity="0.5" fill="none"/>
    </g>

    <!-- AI/Intelligence indicator -->
    <circle cx="29" cy="18" r="3.5" fill="none" stroke="url(#logoIcon)" stroke-width="1.5" opacity="0.9"/>
    <circle cx="29" cy="18" r="1.2" fill="url(#logoIcon)"/>

    <!-- Neural network connections -->
    <g opacity="0.6">
      <path d="M 26 20 L 27 19" stroke="url(#logoIcon)" stroke-width="0.8"/>
      <path d="M 26 16 L 27 17" stroke="url(#logoIcon)" stroke-width="0.8"/>
    </g>
  </g>

  <!-- Brand accent at bottom -->
  <rect x="10" y="33" width="20" height="2.5" rx="1.25" fill="url(#logoAccent)" opacity="0.6"/>

  <!-- Subtle top highlight -->
  <rect x="12" y="5" width="16" height="1" rx="0.5" fill="rgba(255,255,255,0.3)"/>
</svg>
